<svg width="67" height="118" viewBox="0 0 67 118" fill="none" xmlns="http://www.w3.org/2000/svg">
<g id="Layer_1" clip-path="url(#clip0_432_248)">
<path id="Vector" d="M66.9457 33.3954C66.961 30.9487 66.7183 28.5071 66.2213 26.1099C61.4767 4.61056 37.3844 -6.47481 17.736 3.98559C6.70037 9.86041 0.641058 19.2815 0.162978 31.7026C-0.199204 40.7773 0.0941845 49.8735 0.0941845 58.9589H0.0543498C0.0543498 67.3301 0.00724669 75.7048 0.079683 84.076C0.0849012 86.4694 0.289642 88.8583 0.691793 91.2187C3.95143 109.332 22.7849 121.336 40.9845 117.146C48.4217 115.418 55.044 111.253 59.768 105.331C64.4919 99.4091 67.0378 92.0816 66.9891 84.5474C66.895 67.5194 67.0036 50.452 66.9457 33.3954ZM38.3551 41.9666C38.3551 45.0879 36.3341 47.2414 33.4801 47.22C30.684 47.22 28.6993 45.0772 28.6848 42.0202C28.6848 39.0381 28.6848 36.056 28.6848 33.0704C28.6848 30.0848 28.6848 27.1063 28.6848 24.1243C28.6848 20.9744 30.6587 18.8816 33.5598 18.8959C36.3884 18.8959 38.3478 21.0029 38.3551 24.0707C38.3696 30.0372 38.3696 36.0037 38.3551 41.9702V41.9666Z" fill="white"/>
<path id="Vector_2" d="M28.6812 33.074C28.6812 30.0919 28.6812 27.1099 28.6812 24.1278C28.6812 20.9779 30.6551 18.8851 33.5562 18.8994C36.3848 18.8994 38.3442 21.0065 38.3514 24.0743C38.3659 30.0265 38.3659 35.9918 38.3514 41.9702C38.3514 45.0915 36.3305 47.245 33.4765 47.2236C30.6804 47.2236 28.6956 45.0808 28.6812 42.0237C28.6703 39.0417 28.6812 36.0596 28.6812 33.074Z" fill="#D90429"/>
</g>
<defs>
<clipPath id="clip0_432_248">
<rect width="67" height="118" fill="white"/>
</clipPath>
</defs>
</svg>
